<svg width="20" height="20" viewBox="0 0 20 20" fill="none" xmlns="http://www.w3.org/2000/svg">
<path d="M1 14.5L6.15925 9.34075C6.58119 8.91894 7.15338 8.68198 7.75 8.68198C8.34662 8.68198 8.91881 8.91894 9.34075 9.34075L14.5 14.5M12.25 12.25L14.0343 10.4657C14.4562 10.0439 15.0284 9.80698 15.625 9.80698C16.2216 9.80698 16.7938 10.0439 17.2157 10.4657L19 12.25M12.25 5.5H12.2613M3.25 19H16.75C17.3467 19 17.919 18.7629 18.341 18.341C18.7629 17.919 19 17.3467 19 16.75V3.25C19 2.65326 18.7629 2.08097 18.341 1.65901C17.919 1.23705 17.3467 1 16.75 1H3.25C2.65326 1 2.08097 1.23705 1.65901 1.65901C1.23705 2.08097 1 2.65326 1 3.25V16.75C1 17.3467 1.23705 17.919 1.65901 18.341C2.08097 18.7629 2.65326 19 3.25 19Z" stroke="#B3B3B3" stroke-width="2" stroke-linecap="round" stroke-linejoin="round"/>
</svg>
