<svg width="22" height="22" viewBox="0 0 22 22" fill="none" xmlns="http://www.w3.org/2000/svg">
<path d="M5.44455 5.44455H5.45566M5.44455 1H11.0002C11.5691 1 12.138 1.21667 12.5714 1.65113L20.3493 9.42909C20.766 9.84583 21 10.411 21 11.0002C21 11.5895 20.766 12.1546 20.3493 12.5714L12.5714 20.3493C12.1546 20.766 11.5895 21 11.0002 21C10.411 21 9.84583 20.766 9.42909 20.3493L1.65113 12.5714C1.44446 12.3653 1.28055 12.1204 1.16881 11.8508C1.05707 11.5811 0.9997 11.2921 1 11.0002V5.44455C1 4.26578 1.46826 3.13529 2.30178 2.30178C3.13529 1.46826 4.26578 1 5.44455 1Z" stroke="#B3B3B3" stroke-width="2" stroke-linecap="round" stroke-linejoin="round"/>
</svg>
