<svg width="20" height="23" viewBox="0 0 20 23" fill="none" xmlns="http://www.w3.org/2000/svg">
<path d="M7.75 10V16.75M12.25 10V16.75M1 5.5H19M17.875 5.5L16.8996 19.1598C16.8592 19.7274 16.6052 20.2587 16.1888 20.6465C15.7723 21.0344 15.2243 21.25 14.6553 21.25H5.34475C4.77566 21.25 4.2277 21.0344 3.81125 20.6465C3.39479 20.2587 3.14078 19.7274 3.10038 19.1598L2.125 5.5H17.875ZM13.375 5.5V2.125C13.375 1.82663 13.2565 1.54048 13.0455 1.3295C12.8345 1.11853 12.5484 1 12.25 1H7.75C7.45163 1 7.16548 1.11853 6.95451 1.3295C6.74353 1.54048 6.625 1.82663 6.625 2.125V5.5H13.375Z" stroke="#EF0202" stroke-width="2" stroke-linecap="round" stroke-linejoin="round"/>
</svg>
