<svg width="48" height="20" viewBox="0 0 48 20" fill="none" xmlns="http://www.w3.org/2000/svg">
<rect width="48" height="20" rx="8" fill="#F0F0F0"/>
<path d="M25.0509 13.5103V6.29425L25.2709 6.51425H22.3449V5.81025H28.5599V6.51425H25.6449L25.8539 6.29425V13.5103H25.0509ZM31.6751 13.5653C31.0738 13.5653 30.5458 13.4406 30.0911 13.1913C29.6364 12.9346 29.2808 12.5863 29.0241 12.1463C28.7674 11.6989 28.6391 11.1893 28.6391 10.6173C28.6391 10.0453 28.7601 9.53925 29.0021 9.09925C29.2514 8.65925 29.5888 8.31459 30.0141 8.06525C30.4468 7.80859 30.9308 7.68025 31.4661 7.68025C32.0088 7.68025 32.4891 7.80492 32.9071 8.05425C33.3324 8.29625 33.6661 8.64092 33.9081 9.08825C34.1501 9.52825 34.2711 10.0379 34.2711 10.6173C34.2711 10.6539 34.2674 10.6943 34.2601 10.7383C34.2601 10.7749 34.2601 10.8153 34.2601 10.8593H29.2331V10.2763H33.8421L33.5341 10.5073C33.5341 10.0893 33.4424 9.71892 33.2591 9.39625C33.0831 9.06625 32.8411 8.80959 32.5331 8.62625C32.2251 8.44292 31.8694 8.35125 31.4661 8.35125C31.0701 8.35125 30.7144 8.44292 30.3991 8.62625C30.0838 8.80959 29.8381 9.06625 29.6621 9.39625C29.4861 9.72625 29.3981 10.1039 29.3981 10.5293V10.6503C29.3981 11.0903 29.4934 11.4789 29.6841 11.8163C29.8821 12.1463 30.1534 12.4066 30.4981 12.5973C30.8501 12.7806 31.2498 12.8723 31.6971 12.8723C32.0491 12.8723 32.3754 12.8099 32.6761 12.6853C32.9841 12.5606 33.2481 12.3699 33.4681 12.1133L33.9081 12.6193C33.6514 12.9273 33.3288 13.1619 32.9401 13.3233C32.5588 13.4846 32.1371 13.5653 31.6751 13.5653ZM35.9999 13.5103V7.73525H40.0919V8.41725H36.5829L36.7809 8.21925V13.5103H35.9999Z" fill="#B3B3B3"/>
<path d="M9.11272 7.84788H9.11861M9.11272 5.48926H12.061C12.3629 5.48926 12.6648 5.60424 12.8948 5.8348L17.0224 9.96239C17.2435 10.1835 17.3677 10.4835 17.3677 10.7962C17.3677 11.1089 17.2435 11.4088 17.0224 11.6299L12.8948 15.7575C12.6736 15.9786 12.3737 16.1028 12.061 16.1028C11.7483 16.1028 11.4484 15.9786 11.2272 15.7575L7.09963 11.6299C6.98995 11.5206 6.90297 11.3906 6.84367 11.2475C6.78437 11.1044 6.75393 10.9511 6.75409 10.7962V7.84788C6.75409 7.22234 7.00259 6.62241 7.44492 6.18008C7.88724 5.73776 8.48717 5.48926 9.11272 5.48926Z" stroke="#B3B3B3" stroke-width="1.5" stroke-linecap="round" stroke-linejoin="round"/>
</svg>

