<svg width="26" height="32" viewBox="0 0 26 32" fill="none" xmlns="http://www.w3.org/2000/svg">
<path d="M8.33333 16.25H17.8333M8.33333 22.5833H17.8333M21 30.5H5.16667C4.32681 30.5 3.52136 30.1664 2.9275 29.5725C2.33363 28.9786 2 28.1732 2 27.3333V5.16667C2 4.32681 2.33363 3.52136 2.9275 2.9275C3.52136 2.33363 4.32681 2 5.16667 2H14.0112C14.4311 2.00009 14.8337 2.16696 15.1306 2.46392L23.7028 11.0361C23.9997 11.3329 24.1666 11.7356 24.1667 12.1555V27.3333C24.1667 28.1732 23.833 28.9786 23.2392 29.5725C22.6453 30.1664 21.8399 30.5 21 30.5Z" stroke="#B3B3B3" stroke-width="3" stroke-linecap="round" stroke-linejoin="round"/>
</svg>

