<svg width="17" height="22" viewBox="0 0 17 22" fill="none" xmlns="http://www.w3.org/2000/svg">
<path d="M5.28571 3.14286H3.14286C2.57454 3.14286 2.02949 3.36862 1.62763 3.77049C1.22576 4.17235 1 4.71739 1 5.28571V18.1429C1 18.7112 1.22576 19.2562 1.62763 19.6581C2.02949 20.06 2.57454 20.2857 3.14286 20.2857H13.8571C14.4255 20.2857 14.9705 20.06 15.3724 19.6581C15.7742 19.2562 16 18.7112 16 18.1429V5.28571C16 4.71739 15.7742 4.17235 15.3724 3.77049C14.9705 3.36862 14.4255 3.14286 13.8571 3.14286H11.7143M5.28571 3.14286C5.28571 3.71118 5.51148 4.25622 5.91334 4.65809C6.31521 5.05995 6.86025 5.28571 7.42857 5.28571H9.57143C10.1397 5.28571 10.6848 5.05995 11.0867 4.65809C11.4885 4.25622 11.7143 3.71118 11.7143 3.14286M5.28571 3.14286C5.28571 2.57454 5.51148 2.02949 5.91334 1.62763C6.31521 1.22576 6.86025 1 7.42857 1H9.57143C10.1397 1 10.6848 1.22576 11.0867 1.62763C11.4885 2.02949 11.7143 2.57454 11.7143 3.14286M8.5 10.6429H11.7143M8.5 14.9286H11.7143M5.28571 10.6429H5.29643M5.28571 14.9286H5.29643" stroke="#2B2B2B" stroke-width="2" stroke-linecap="round" stroke-linejoin="round"/>
</svg>
