<svg width="28" height="28" viewBox="0 0 28 28" fill="none" xmlns="http://www.w3.org/2000/svg">
<path d="M4.06367 22.3836C7.09471 20.6703 10.5183 19.7725 14 19.7778C17.6111 19.7778 21.0012 20.7239 23.9363 22.3836M18.3333 11.1111C18.3333 12.2604 17.8768 13.3626 17.0641 14.1752C16.2515 14.9879 15.1493 15.4444 14 15.4444C12.8507 15.4444 11.7485 14.9879 10.9359 14.1752C10.1232 13.3626 9.66667 12.2604 9.66667 11.1111C9.66667 9.96184 10.1232 8.85964 10.9359 8.04698C11.7485 7.23432 12.8507 6.77778 14 6.77778C15.1493 6.77778 16.2515 7.23432 17.0641 8.04698C17.8768 8.85964 18.3333 9.96184 18.3333 11.1111ZM27 14C27 15.7072 26.6637 17.3977 26.0104 18.9749C25.3571 20.5521 24.3995 21.9852 23.1924 23.1924C21.9852 24.3995 20.5521 25.3571 18.9749 26.0104C17.3977 26.6637 15.7072 27 14 27C12.2928 27 10.6023 26.6637 9.02512 26.0104C7.44788 25.3571 6.01477 24.3995 4.80761 23.1924C3.60045 21.9852 2.64288 20.5521 1.98957 18.9749C1.33625 17.3977 1 15.7072 1 14C1 10.5522 2.36964 7.24558 4.80761 4.80761C7.24558 2.36964 10.5522 1 14 1C17.4478 1 20.7544 2.36964 23.1924 4.80761C25.6304 7.24558 27 10.5522 27 14Z" stroke="#3F3F46" stroke-width="2" stroke-linecap="round" stroke-linejoin="round"/>
</svg>
