<svg width="39" height="39" viewBox="0 0 39 39" fill="none" xmlns="http://www.w3.org/2000/svg">
<path d="M6.12417 30.7856C10.2044 28.4793 14.8131 27.2707 19.5 27.2778C24.3611 27.2778 28.9247 28.5514 32.8758 30.7856M25.3333 15.6111C25.3333 17.1582 24.7188 18.6419 23.6248 19.7359C22.5308 20.8299 21.0471 21.4444 19.5 21.4444C17.9529 21.4444 16.4692 20.8299 15.3752 19.7359C14.2812 18.6419 13.6667 17.1582 13.6667 15.6111C13.6667 14.064 14.2812 12.5803 15.3752 11.4863C16.4692 10.3924 17.9529 9.77778 19.5 9.77778C21.0471 9.77778 22.5308 10.3924 23.6248 11.4863C24.7188 12.5803 25.3333 14.064 25.3333 15.6111ZM37 19.5C37 21.7981 36.5474 24.0738 35.6679 26.197C34.7884 28.3202 33.4994 30.2493 31.8744 31.8744C30.2493 33.4994 28.3202 34.7884 26.197 35.6679C24.0738 36.5474 21.7981 37 19.5 37C17.2019 37 14.9262 36.5474 12.803 35.6679C10.6798 34.7884 8.75066 33.4994 7.12563 31.8744C5.50061 30.2493 4.21157 28.3202 3.33211 26.197C2.45265 24.0738 2 21.7981 2 19.5C2 14.8587 3.84374 10.4075 7.12563 7.12563C10.4075 3.84374 14.8587 2 19.5 2C24.1413 2 28.5925 3.84374 31.8744 7.12563C35.1563 10.4075 37 14.8587 37 19.5Z" stroke="#3F3F46" stroke-width="3" stroke-linecap="round" stroke-linejoin="round"/>
</svg>
