<svg width="22" height="20" viewBox="0 0 22 20" fill="none" xmlns="http://www.w3.org/2000/svg">
<path d="M6.55556 4.33333H3.22222C2.63285 4.33333 2.06762 4.56746 1.65087 4.98421C1.23413 5.40095 1 5.96619 1 6.55556V16.5556C1 17.1449 1.23413 17.7102 1.65087 18.1269C2.06762 18.5437 2.63285 18.7778 3.22222 18.7778H18.7778C19.3671 18.7778 19.9324 18.5437 20.3491 18.1269C20.7659 17.7102 21 17.1449 21 16.5556V6.55556C21 5.96619 20.7659 5.40095 20.3491 4.98421C19.9324 4.56746 19.3671 4.33333 18.7778 4.33333H15.4444M14.3333 8.77778L11 12.1111M11 12.1111L7.66667 8.77778M11 12.1111V1" stroke="#27AE60" stroke-width="2" stroke-linecap="round" stroke-linejoin="round"/>
</svg>
