<svg width="30" height="30" viewBox="0 0 30 30" fill="none" xmlns="http://www.w3.org/2000/svg">
<path d="M4.29933 24.0284C7.56354 22.1834 11.2505 21.2165 15 21.2222C18.8889 21.2222 22.5398 22.2411 25.7007 24.0284M19.6667 11.8889C19.6667 13.1266 19.175 14.3136 18.2998 15.1887C17.4247 16.0639 16.2377 16.5556 15 16.5556C13.7623 16.5556 12.5753 16.0639 11.7002 15.1887C10.825 14.3136 10.3333 13.1266 10.3333 11.8889C10.3333 10.6512 10.825 9.46423 11.7002 8.58906C12.5753 7.71389 13.7623 7.22222 15 7.22222C16.2377 7.22222 17.4247 7.71389 18.2998 8.58906C19.175 9.46423 19.6667 10.6512 19.6667 11.8889ZM29 15C29 16.8385 28.6379 18.659 27.9343 20.3576C27.2307 22.0561 26.1995 23.5995 24.8995 24.8995C23.5995 26.1995 22.0561 27.2307 20.3576 27.9343C18.659 28.6379 16.8385 29 15 29C13.1615 29 11.341 28.6379 9.64243 27.9343C7.94387 27.2307 6.40053 26.1995 5.1005 24.8995C3.80048 23.5995 2.76925 22.0561 2.06569 20.3576C1.36212 18.659 1 16.8385 1 15C1 11.287 2.475 7.72601 5.1005 5.10051C7.72601 2.475 11.287 1 15 1C18.713 1 22.274 2.475 24.8995 5.10051C27.525 7.72601 29 11.287 29 15Z" stroke="#B3B3B3" stroke-width="2" stroke-linecap="round" stroke-linejoin="round"/>
</svg>
